<?xml version="1.0" encoding="UTF-8"?>
<svg width="512" height="512" viewBox="0 0 512 512" fill="none" xmlns="http://www.w3.org/2000/svg">
  <!-- Background Circle -->
  <circle cx="256" cy="256" r="248" fill="url(#gradient)" stroke="#ffffff" stroke-width="16"/>
  
  <!-- Music Note -->
  <path d="M320 184v144c0 26.5-21.5 48-48 48s-48-21.5-48-48s21.5-48 48-48c8.8 0 17 2.4 24 6.6V184l-128 32v142c0 26.5-21.5 48-48 48s-48-21.5-48-48s21.5-48 48-48c8.8 0 17 2.4 24 6.6V184c0-8.8 6.3-16.3 14.8-17.9l160-40c10.4-2.6 21.2 4.6 21.2 15.4z" 
        fill="white"/>
  
  <!-- Gradient Definition -->
  <defs>
    <linearGradient id="gradient" x1="0" y1="0" x2="512" y2="512" gradientUnits="userSpaceOnUse">
      <stop offset="0%" style="stop-color:#4F46E5"/>
      <stop offset="100%" style="stop-color:#7C3AED"/>
    </linearGradient>
  </defs>
</svg> 